<svg width="1920" height="1080" viewBox="0 0 1920 1080" fill="none" xmlns="http://www.w3.org/2000/svg">
<rect x="-39" y="-26" width="1984" height="1105" stroke="#ABB094" stroke-opacity="0.7" stroke-width="2"/>
<line x1="63" y1="59.5" x2="1857" y2="59.5" stroke="#ABB094" stroke-opacity="0.7"/>
<line x1="63" y1="116.5" x2="1857" y2="116.5" stroke="#ABB094" stroke-opacity="0.7" stroke-width="3"/>
<line x1="273" y1="570.5" x2="1857" y2="570.5" stroke="#ABB094" stroke-opacity="0.7"/>
<line x1="273" y1="555.5" x2="1857" y2="555.5" stroke="#ABB094" stroke-opacity="0.7"/>
<line x1="484" y1="245.5" x2="1857" y2="245.5" stroke="#ABB094" stroke-opacity="0.7"/>
<line x1="484" y1="295.5" x2="1857" y2="295.5" stroke="#ABB094" stroke-opacity="0.7"/>
<line x1="484" y1="309.5" x2="1857" y2="309.5" stroke="#ABB094" stroke-opacity="0.7" stroke-width="3"/>
<line x1="1239.5" y1="571" x2="1239.5" y2="311" stroke="#ABB094" stroke-opacity="0.7" stroke-width="3"/>
<line x1="391.5" y1="859" x2="391.5" y2="571" stroke="#ABB094" stroke-opacity="0.7"/>
<line x1="1482.5" y1="246" x2="1482.5" y2="117" stroke="#ABB094" stroke-opacity="0.7"/>
<line x1="1191.5" y1="245" x2="1191.5" y2="116" stroke="#ABB094" stroke-opacity="0.7"/>
<line x1="994.5" y1="1080" x2="994.5" y2="571" stroke="#ABB094" stroke-opacity="0.7" stroke-width="3"/>
<line x1="1010.5" y1="1080" x2="1010.5" y2="571" stroke="#ABB094" stroke-opacity="0.7"/>
<line y1="857.5" x2="996" y2="857.5" stroke="#ABB094" stroke-opacity="0.7" stroke-width="3"/>
</svg>
