<svg width="713" height="196" viewBox="0 0 713 196" fill="none" xmlns="http://www.w3.org/2000/svg">
<path d="M57.8608 195.074H-0.00015573V-3.41414e-05H61.1671C117.099 0.275491 150.163 36.6452 149.887 96.9859C149.887 158.429 116.548 195.074 57.8608 195.074ZM19.2868 177.991H56.7587C106.354 177.991 131.427 147.408 131.151 96.9859C131.427 47.3908 106.629 17.3582 60.065 17.6338H19.2868V177.991ZM182.301 195.074V-3.41414e-05H246.223C288.103 0.275491 309.319 24.522 309.595 58.963C309.319 85.1382 296.92 105.252 272.398 113.242L317.309 195.074H295.267L252.836 116.548C250.632 116.824 248.427 116.824 246.223 116.824H201.588V195.074H182.301ZM201.588 99.7412H245.672C275.98 99.4657 290.583 84.0361 290.308 58.963C290.583 33.8899 275.98 17.3582 245.121 17.6338H201.588V99.7412ZM344.204 195.074H323.814L394.901 -3.41414e-05H415.29L486.376 195.074H465.987L445.598 137.213H364.593L344.204 195.074ZM370.654 120.13H439.536L405.922 24.7975H404.269L370.654 120.13ZM528.342 195.074L474.89 -3.41414e-05H494.177L537.71 165.868H539.364L582.897 -3.41414e-05H604.939L648.473 165.868H649.575L693.108 -3.41414e-05H712.946L659.494 195.074H639.105L594.469 31.9612H593.367L548.732 195.074H528.342Z" fill="#645C2F"/>
</svg>
