<svg width="692" height="201" viewBox="0 0 692 201" fill="none" xmlns="http://www.w3.org/2000/svg">
<path d="M-0.00015573 197.554V2.4797H113.517V20.1135H19.2868V91.7509H104.701V108.283H19.2868V197.554H-0.00015573ZM147.052 197.554V2.4797H166.339V180.471H258.366V197.554H147.052ZM440.753 100.017C440.477 161.184 405.209 200.309 355.89 200.309C306.295 200.309 271.303 161.184 271.027 100.017C271.303 39.1249 306.57 -5.30665e-05 355.89 0.275472C405.209 -5.30665e-05 440.477 39.1249 440.753 100.017ZM289.763 100.017C290.039 151.816 318.142 182.124 355.89 182.124C393.637 182.124 422.017 152.092 422.017 100.017C422.017 48.2174 393.637 17.9093 355.89 17.9093C318.142 17.9093 290.039 48.2174 289.763 100.017ZM507.355 197.554L453.903 2.4797H473.189L516.723 168.348H518.376L561.91 2.4797H583.952L627.485 168.348H628.587L672.121 2.4797H691.959L638.506 197.554H618.117L573.482 34.441H572.38L527.744 197.554H507.355Z" fill="#645C2F"/>
</svg>
