<svg width="821" height="485" viewBox="0 0 821 485" fill="none" xmlns="http://www.w3.org/2000/svg">
<mask id="path-1-outside-1_80_14" maskUnits="userSpaceOnUse" x="610.633" y="44" width="210" height="144" fill="black">
<rect fill="white" x="610.633" y="44" width="210" height="144"/>
<path d="M614.533 47.8H637.933L669.433 124.9H670.633L702.133 47.8H725.533V154H707.233V81.1H706.333L676.933 153.7H663.133L633.733 80.8H632.833V154H614.533V47.8ZM755.543 183.7C751.943 183.85 748.343 183.7 745.943 183.4V168.4C748.193 168.7 751.493 168.7 753.743 168.7C758.393 168.7 762.293 168.4 765.443 160L766.943 155.8L738.143 74.5H757.943L776.243 134.5H777.143L795.743 74.5H815.543L783.443 163.6C778.943 176.35 770.543 183.85 755.543 183.7Z"/>
</mask>
<path d="M614.533 47.8H637.933L669.433 124.9H670.633L702.133 47.8H725.533V154H707.233V81.1H706.333L676.933 153.7H663.133L633.733 80.8H632.833V154H614.533V47.8ZM755.543 183.7C751.943 183.85 748.343 183.7 745.943 183.4V168.4C748.193 168.7 751.493 168.7 753.743 168.7C758.393 168.7 762.293 168.4 765.443 160L766.943 155.8L738.143 74.5H757.943L776.243 134.5H777.143L795.743 74.5H815.543L783.443 163.6C778.943 176.35 770.543 183.85 755.543 183.7Z" fill="white"/>
<path d="M614.533 47.8V44.5136H611.246V47.8H614.533ZM637.933 47.8L640.975 46.557L640.14 44.5136H637.933V47.8ZM669.433 124.9L666.391 126.143L667.225 128.186H669.433V124.9ZM670.633 124.9V128.186H672.84L673.675 126.143L670.633 124.9ZM702.133 47.8V44.5136H699.925L699.091 46.557L702.133 47.8ZM725.533 47.8H728.819V44.5136H725.533V47.8ZM725.533 154V157.286H728.819V154H725.533ZM707.233 154H703.946V157.286H707.233V154ZM707.233 81.1H710.519V77.8136H707.233V81.1ZM706.333 81.1V77.8136H704.118L703.287 79.8664L706.333 81.1ZM676.933 153.7V156.986H679.148L679.979 154.934L676.933 153.7ZM663.133 153.7L660.085 154.929L660.915 156.986H663.133V153.7ZM633.733 80.8L636.781 79.5708L635.951 77.5136H633.733V80.8ZM632.833 80.8V77.5136H629.546V80.8H632.833ZM632.833 154V157.286H636.119V154H632.833ZM614.533 154H611.246V157.286H614.533V154ZM614.533 47.8V51.0864H637.933V47.8V44.5136H614.533V47.8ZM637.933 47.8L634.891 49.043L666.391 126.143L669.433 124.9L672.475 123.657L640.975 46.557L637.933 47.8ZM669.433 124.9V128.186H670.633V124.9V121.614H669.433V124.9ZM670.633 124.9L673.675 126.143L705.175 49.043L702.133 47.8L699.091 46.557L667.591 123.657L670.633 124.9ZM702.133 47.8V51.0864H725.533V47.8V44.5136H702.133V47.8ZM725.533 47.8H722.246V154H725.533H728.819V47.8H725.533ZM725.533 154V150.714H707.233V154V157.286H725.533V154ZM707.233 154H710.519V81.1H707.233H703.946V154H707.233ZM707.233 81.1V77.8136H706.333V81.1V84.3864H707.233V81.1ZM706.333 81.1L703.287 79.8664L673.887 152.466L676.933 153.7L679.979 154.934L709.379 82.3335L706.333 81.1ZM676.933 153.7V150.414H663.133V153.7V156.986H676.933V153.7ZM663.133 153.7L666.181 152.471L636.781 79.5708L633.733 80.8L630.685 82.0292L660.085 154.929L663.133 153.7ZM633.733 80.8V77.5136H632.833V80.8V84.0864H633.733V80.8ZM632.833 80.8H629.546V154H632.833H636.119V80.8H632.833ZM632.833 154V150.714H614.533V154V157.286H632.833V154ZM614.533 154H617.819V47.8H614.533H611.246V154H614.533ZM755.543 183.7L755.576 180.414L755.491 180.413L755.407 180.416L755.543 183.7ZM745.943 183.4H742.657V186.301L745.536 186.661L745.943 183.4ZM745.943 168.4L746.378 165.142L742.657 164.646V168.4H745.943ZM765.443 160L768.521 161.154L768.53 161.13L768.538 161.105L765.443 160ZM766.943 155.8L770.038 156.905L770.431 155.804L770.041 154.703L766.943 155.8ZM738.143 74.5V71.2136H733.493L735.046 75.5974L738.143 74.5ZM757.943 74.5L761.087 73.5412L760.377 71.2136H757.943V74.5ZM776.243 134.5L773.1 135.459L773.81 137.786H776.243V134.5ZM777.143 134.5V137.786H779.565L780.282 135.473L777.143 134.5ZM795.743 74.5V71.2136H793.321L792.604 73.5269L795.743 74.5ZM815.543 74.5L818.635 75.6139L820.221 71.2136H815.543V74.5ZM783.443 163.6L780.352 162.486L780.348 162.496L780.344 162.506L783.443 163.6ZM755.543 183.7L755.407 180.416C751.955 180.56 748.54 180.413 746.351 180.139L745.943 183.4L745.536 186.661C748.147 186.987 751.932 187.14 755.68 186.984L755.543 183.7ZM745.943 183.4H749.23V168.4H745.943H742.657V183.4H745.943ZM745.943 168.4L745.509 171.658C748.023 171.993 751.571 171.986 753.743 171.986V168.7V165.414C751.415 165.414 748.363 165.407 746.378 165.142L745.943 168.4ZM753.743 168.7V171.986C756.021 171.986 758.998 171.962 761.798 170.347C764.674 168.688 766.81 165.715 768.521 161.154L765.443 160L762.366 158.846C760.927 162.685 759.538 164.062 758.514 164.653C757.414 165.288 756.115 165.414 753.743 165.414V168.7ZM765.443 160L768.538 161.105L770.038 156.905L766.943 155.8L763.848 154.695L762.348 158.895L765.443 160ZM766.943 155.8L770.041 154.703L741.241 73.4026L738.143 74.5L735.046 75.5974L763.846 156.897L766.943 155.8ZM738.143 74.5V77.7864H757.943V74.5V71.2136H738.143V74.5ZM757.943 74.5L754.8 75.4587L773.1 135.459L776.243 134.5L779.387 133.541L761.087 73.5412L757.943 74.5ZM776.243 134.5V137.786H777.143V134.5V131.214H776.243V134.5ZM777.143 134.5L780.282 135.473L798.882 75.4731L795.743 74.5L792.604 73.5269L774.004 133.527L777.143 134.5ZM795.743 74.5V77.7864H815.543V74.5V71.2136H795.743V74.5ZM815.543 74.5L812.451 73.3861L780.352 162.486L783.443 163.6L786.535 164.714L818.635 75.6139L815.543 74.5ZM783.443 163.6L780.344 162.506C778.236 168.481 775.32 172.923 771.442 175.871C767.595 178.796 762.498 180.483 755.576 180.414L755.543 183.7L755.51 186.986C763.588 187.067 770.191 185.079 775.42 181.104C780.617 177.152 784.151 171.469 786.542 164.694L783.443 163.6Z" fill="#586140" fill-opacity="0.4" mask="url(#path-1-outside-1_80_14)"/>
<mask id="path-3-outside-2_80_14" maskUnits="userSpaceOnUse" x="208.633" y="178" width="566" height="150" fill="black">
<rect fill="white" x="208.633" y="178" width="566" height="150"/>
<path d="M248.533 293H212.533V186.8H249.133C280.783 186.95 299.833 206.75 299.833 239.9C299.833 273.05 280.783 293 248.533 293ZM231.433 276.5H247.633C269.683 276.5 280.933 264.2 280.933 239.9C280.933 215.6 269.683 203.45 247.933 203.3H231.433V276.5ZM316.076 293V213.5H334.076V226.7H334.976C337.826 217.55 345.476 212.3 354.476 212.3C356.726 212.3 359.726 212.45 361.376 212.9V230C359.726 229.4 355.826 228.95 352.676 228.8C342.326 228.95 334.676 236 334.676 246.2V293H316.076ZM367.408 270.8C367.258 252.65 382.108 247.55 396.808 246.5C402.508 246.05 413.908 245.6 417.208 245.45V239C417.208 231.2 412.108 226.7 402.808 226.7C394.558 226.7 389.458 230.45 388.108 236H369.808C371.308 222.65 383.458 212.45 403.408 212.3C418.408 212.45 435.808 218.6 435.808 239.9V293H417.808V282.2H417.208C413.908 288.65 406.408 294.65 393.808 294.5C378.808 294.65 367.258 286.25 367.408 270.8ZM385.408 270.5C385.258 277.25 390.958 280.85 398.608 281C410.158 280.85 417.358 273.35 417.208 264.5V257.9C413.608 258.05 403.558 258.65 399.808 259.1C390.958 259.7 385.258 263.45 385.408 270.5ZM469.979 293L447.479 213.5H466.379L480.479 269.6H481.079L495.479 213.5H514.379L528.779 269.3H529.379L543.179 213.5H562.379L539.879 293H520.379L505.379 239H504.479L489.479 293H469.979ZM574.328 293V213.5H592.928V293H574.328ZM572.828 191.9C572.828 186.35 577.778 181.85 583.628 181.7C589.628 181.85 594.428 186.35 594.428 191.9C594.428 197.6 589.628 202.1 583.628 202.1C577.778 202.1 572.828 197.6 572.828 191.9ZM629.549 246.5V293H610.949V213.5H628.649V227H629.849C633.449 218 641.549 212.45 653.549 212.3C669.899 212.45 680.699 223.25 680.549 242.3V293H661.949V245.3C662.099 234.5 656.249 228.2 646.349 228.2C636.599 228.2 629.549 234.8 629.549 246.5ZM733.047 324.5C712.047 324.5 698.697 315.05 697.347 300.2H715.947C717.447 307.1 723.897 310.4 733.347 310.4C744.747 310.4 751.947 305.6 751.947 293.9V278.6H751.047C748.197 284.45 741.747 291.8 728.247 291.8C709.647 291.8 695.247 278.45 695.247 252.5C695.247 226.4 709.797 212.45 728.247 212.3C742.197 212.45 748.197 220.85 751.047 226.4H751.947V213.5H770.547V294.2C770.397 314.6 754.647 324.5 733.047 324.5ZM714.447 252.8C714.297 267.5 720.897 277.25 733.347 277.1C745.197 277.25 752.097 268.1 751.947 252.8C752.097 237.8 745.347 227.75 733.347 227.6C720.747 227.75 714.297 238.4 714.447 252.8Z"/>
</mask>
<path d="M248.533 293H212.533V186.8H249.133C280.783 186.95 299.833 206.75 299.833 239.9C299.833 273.05 280.783 293 248.533 293ZM231.433 276.5H247.633C269.683 276.5 280.933 264.2 280.933 239.9C280.933 215.6 269.683 203.45 247.933 203.3H231.433V276.5ZM316.076 293V213.5H334.076V226.7H334.976C337.826 217.55 345.476 212.3 354.476 212.3C356.726 212.3 359.726 212.45 361.376 212.9V230C359.726 229.4 355.826 228.95 352.676 228.8C342.326 228.95 334.676 236 334.676 246.2V293H316.076ZM367.408 270.8C367.258 252.65 382.108 247.55 396.808 246.5C402.508 246.05 413.908 245.6 417.208 245.45V239C417.208 231.2 412.108 226.7 402.808 226.7C394.558 226.7 389.458 230.45 388.108 236H369.808C371.308 222.65 383.458 212.45 403.408 212.3C418.408 212.45 435.808 218.6 435.808 239.9V293H417.808V282.2H417.208C413.908 288.65 406.408 294.65 393.808 294.5C378.808 294.65 367.258 286.25 367.408 270.8ZM385.408 270.5C385.258 277.25 390.958 280.85 398.608 281C410.158 280.85 417.358 273.35 417.208 264.5V257.9C413.608 258.05 403.558 258.65 399.808 259.1C390.958 259.7 385.258 263.45 385.408 270.5ZM469.979 293L447.479 213.5H466.379L480.479 269.6H481.079L495.479 213.5H514.379L528.779 269.3H529.379L543.179 213.5H562.379L539.879 293H520.379L505.379 239H504.479L489.479 293H469.979ZM574.328 293V213.5H592.928V293H574.328ZM572.828 191.9C572.828 186.35 577.778 181.85 583.628 181.7C589.628 181.85 594.428 186.35 594.428 191.9C594.428 197.6 589.628 202.1 583.628 202.1C577.778 202.1 572.828 197.6 572.828 191.9ZM629.549 246.5V293H610.949V213.5H628.649V227H629.849C633.449 218 641.549 212.45 653.549 212.3C669.899 212.45 680.699 223.25 680.549 242.3V293H661.949V245.3C662.099 234.5 656.249 228.2 646.349 228.2C636.599 228.2 629.549 234.8 629.549 246.5ZM733.047 324.5C712.047 324.5 698.697 315.05 697.347 300.2H715.947C717.447 307.1 723.897 310.4 733.347 310.4C744.747 310.4 751.947 305.6 751.947 293.9V278.6H751.047C748.197 284.45 741.747 291.8 728.247 291.8C709.647 291.8 695.247 278.45 695.247 252.5C695.247 226.4 709.797 212.45 728.247 212.3C742.197 212.45 748.197 220.85 751.047 226.4H751.947V213.5H770.547V294.2C770.397 314.6 754.647 324.5 733.047 324.5ZM714.447 252.8C714.297 267.5 720.897 277.25 733.347 277.1C745.197 277.25 752.097 268.1 751.947 252.8C752.097 237.8 745.347 227.75 733.347 227.6C720.747 227.75 714.297 238.4 714.447 252.8Z" fill="white"/>
<path d="M212.533 293H209.246V296.286H212.533V293ZM212.533 186.8V183.514H209.246V186.8H212.533ZM249.133 186.8L249.148 183.514L249.141 183.514H249.133V186.8ZM231.433 276.5H228.146V279.786H231.433V276.5ZM247.933 203.3L247.955 200.014L247.944 200.014H247.933V203.3ZM231.433 203.3V200.014H228.146V203.3H231.433ZM248.533 293V289.714H212.533V293V296.286H248.533V293ZM212.533 293H215.819V186.8H212.533H209.246V293H212.533ZM212.533 186.8V190.086H249.133V186.8V183.514H212.533V186.8ZM249.133 186.8L249.117 190.086C264.247 190.158 275.998 194.908 283.977 203.247C291.971 211.602 296.546 223.946 296.546 239.9H299.833H303.119C303.119 222.704 298.169 208.573 288.726 198.703C279.268 188.817 265.668 183.592 249.148 183.514L249.133 186.8ZM299.833 239.9H296.546C296.546 255.855 291.971 268.231 283.909 276.602C275.864 284.956 263.969 289.714 248.533 289.714V293V296.286C265.347 296.286 279.102 291.069 288.644 281.161C298.17 271.269 303.119 257.095 303.119 239.9H299.833ZM231.433 276.5V279.786H247.633V276.5V273.214H231.433V276.5ZM247.633 276.5V279.786C259.262 279.786 268.602 276.528 274.981 269.526C281.308 262.58 284.219 252.497 284.219 239.9H280.933H277.646C277.646 251.603 274.932 259.82 270.122 265.099C265.364 270.322 258.054 273.214 247.633 273.214V276.5ZM280.933 239.9H284.219C284.219 227.301 281.308 217.259 275.022 210.335C268.688 203.356 259.431 200.093 247.955 200.014L247.933 203.3L247.91 206.586C258.184 206.657 265.427 209.544 270.156 214.753C274.933 220.016 277.646 228.199 277.646 239.9H280.933ZM247.933 203.3V200.014H231.433V203.3V206.586H247.933V203.3ZM231.433 203.3H228.146V276.5H231.433H234.719V203.3H231.433ZM316.076 293H312.79V296.286H316.076V293ZM316.076 213.5V210.214H312.79V213.5H316.076ZM334.076 213.5H337.363V210.214H334.076V213.5ZM334.076 226.7H330.79V229.986H334.076V226.7ZM334.976 226.7V229.986H337.395L338.114 227.677L334.976 226.7ZM361.376 212.9H364.663V210.39L362.241 209.729L361.376 212.9ZM361.376 230L360.253 233.089L364.663 234.692V230H361.376ZM352.676 228.8L352.832 225.517L352.731 225.512L352.629 225.514L352.676 228.8ZM334.676 293V296.286H337.963V293H334.676ZM316.076 293H319.363V213.5H316.076H312.79V293H316.076ZM316.076 213.5V216.786H334.076V213.5V210.214H316.076V213.5ZM334.076 213.5H330.79V226.7H334.076H337.363V213.5H334.076ZM334.076 226.7V229.986H334.976V226.7V223.414H334.076V226.7ZM334.976 226.7L338.114 227.677C340.523 219.942 346.871 215.586 354.476 215.586V212.3V209.014C344.081 209.014 335.129 215.158 331.838 225.723L334.976 226.7ZM354.476 212.3V215.586C356.743 215.586 359.336 215.75 360.511 216.071L361.376 212.9L362.241 209.729C360.117 209.15 356.71 209.014 354.476 209.014V212.3ZM361.376 212.9H358.09V230H361.376H364.663V212.9H361.376ZM361.376 230L362.499 226.911C361.306 226.478 359.605 226.181 358.015 225.973C356.342 225.754 354.489 225.596 352.832 225.517L352.676 228.8L352.52 232.083C354.014 232.154 355.685 232.296 357.162 232.49C358.723 232.694 359.796 232.922 360.253 233.089L361.376 230ZM352.676 228.8L352.629 225.514C340.677 225.687 331.39 234.015 331.39 246.2H334.676H337.963C337.963 237.985 343.975 232.213 352.724 232.086L352.676 228.8ZM334.676 246.2H331.39V293H334.676H337.963V246.2H334.676ZM334.676 293V289.714H316.076V293V296.286H334.676V293ZM367.408 270.8L370.694 270.832L370.694 270.802L370.694 270.773L367.408 270.8ZM396.808 246.5L397.042 249.778L397.054 249.777L397.066 249.776L396.808 246.5ZM417.208 245.45L417.357 248.733L420.494 248.59V245.45H417.208ZM388.108 236V239.286H390.691L391.301 236.777L388.108 236ZM369.808 236L366.542 235.633L366.131 239.286H369.808V236ZM403.408 212.3L403.441 209.014L403.412 209.013L403.383 209.014L403.408 212.3ZM435.808 293V296.286H439.094V293H435.808ZM417.808 293H414.521V296.286H417.808V293ZM417.808 282.2H421.094V278.914H417.808V282.2ZM417.208 282.2V278.914H415.198L414.282 280.703L417.208 282.2ZM393.808 294.5L393.847 291.214L393.811 291.213L393.775 291.214L393.808 294.5ZM385.408 270.5L388.693 270.573L388.695 270.502L388.693 270.43L385.408 270.5ZM398.608 281L398.543 284.286L398.597 284.287L398.65 284.286L398.608 281ZM417.208 264.5H413.921V264.528L413.922 264.556L417.208 264.5ZM417.208 257.9H420.494V254.474L417.071 254.616L417.208 257.9ZM399.808 259.1L400.03 262.379L400.115 262.373L400.199 262.363L399.808 259.1ZM367.408 270.8L370.694 270.773C370.628 262.787 373.769 258.024 378.358 254.975C383.183 251.769 389.89 250.289 397.042 249.778L396.808 246.5L396.574 243.222C389.025 243.761 380.958 245.356 374.72 249.5C368.247 253.801 364.038 260.663 364.122 270.827L367.408 270.8ZM396.808 246.5L397.066 249.776C402.694 249.332 413.999 248.886 417.357 248.733L417.208 245.45L417.059 242.167C413.817 242.314 402.322 242.768 396.549 243.224L396.808 246.5ZM417.208 245.45H420.494V239H417.208H413.921V245.45H417.208ZM417.208 239H420.494C420.494 234.346 418.943 230.281 415.64 227.435C412.411 224.653 407.942 223.414 402.808 223.414V226.7V229.986C406.974 229.986 409.705 230.997 411.35 232.415C412.922 233.769 413.921 235.854 413.921 239H417.208ZM402.808 226.7V223.414C393.531 223.414 386.727 227.773 384.915 235.223L388.108 236L391.301 236.777C392.189 233.127 395.585 229.986 402.808 229.986V226.7ZM388.108 236V232.714H369.808V236V239.286H388.108V236ZM369.808 236L373.074 236.367C374.329 225.195 384.557 215.728 403.433 215.586L403.408 212.3L403.383 209.014C382.358 209.172 368.287 220.105 366.542 235.633L369.808 236ZM403.408 212.3L403.375 215.586C410.525 215.658 417.901 217.17 423.389 220.889C428.685 224.478 432.521 230.307 432.521 239.9H435.808H439.094C439.094 228.193 434.23 220.297 427.077 215.448C420.115 210.73 411.29 209.092 403.441 209.014L403.408 212.3ZM435.808 239.9H432.521V293H435.808H439.094V239.9H435.808ZM435.808 293V289.714H417.808V293V296.286H435.808V293ZM417.808 293H421.094V282.2H417.808H414.521V293H417.808ZM417.808 282.2V278.914H417.208V282.2V285.486H417.808V282.2ZM417.208 282.2L414.282 280.703C411.57 286.004 405.242 291.349 393.847 291.214L393.808 294.5L393.769 297.786C407.573 297.951 416.246 291.296 420.134 283.697L417.208 282.2ZM393.808 294.5L393.775 291.214C386.866 291.283 381.056 289.38 377.049 285.991C373.112 282.661 370.628 277.66 370.694 270.832L367.408 270.8L364.122 270.768C364.038 279.39 367.254 286.314 372.804 291.009C378.285 295.645 385.749 297.867 393.841 297.786L393.808 294.5ZM385.408 270.5L382.122 270.427C382.023 274.877 383.913 278.468 387.118 280.859C390.198 283.157 394.276 284.202 398.543 284.286L398.608 281L398.672 277.714C395.289 277.648 392.693 276.818 391.048 275.591C389.527 274.457 388.642 272.873 388.693 270.573L385.408 270.5ZM398.608 281L398.65 284.286C411.695 284.117 420.68 275.423 420.494 264.444L417.208 264.5L413.922 264.556C414.036 271.277 408.62 277.583 398.565 277.714L398.608 281ZM417.208 264.5H420.494V257.9H417.208H413.921V264.5H417.208ZM417.208 257.9L417.071 254.616C413.465 254.767 403.304 255.371 399.416 255.837L399.808 259.1L400.199 262.363C403.812 261.929 413.751 261.333 417.345 261.184L417.208 257.9ZM399.808 259.1L399.586 255.821C394.817 256.144 390.469 257.334 387.255 259.757C383.888 262.295 382.025 266.003 382.122 270.57L385.408 270.5L388.693 270.43C388.641 267.947 389.553 266.255 391.211 265.006C393.021 263.641 395.948 262.656 400.03 262.379L399.808 259.1ZM469.979 293L466.816 293.895L467.493 296.286H469.979V293ZM447.479 213.5V210.214H443.133L444.316 214.395L447.479 213.5ZM466.379 213.5L469.566 212.699L468.941 210.214H466.379V213.5ZM480.479 269.6L477.291 270.401L477.916 272.886H480.479V269.6ZM481.079 269.6V272.886H483.628L484.262 270.417L481.079 269.6ZM495.479 213.5V210.214H492.929L492.295 212.683L495.479 213.5ZM514.379 213.5L517.561 212.679L516.924 210.214H514.379V213.5ZM528.779 269.3L525.596 270.121L526.233 272.586H528.779V269.3ZM529.379 269.3V272.586H531.951L532.569 270.089L529.379 269.3ZM543.179 213.5V210.214H540.606L539.988 212.711L543.179 213.5ZM562.379 213.5L565.541 214.395L566.724 210.214H562.379V213.5ZM539.879 293V296.286H542.364L543.041 293.895L539.879 293ZM520.379 293L517.212 293.88L517.881 296.286H520.379V293ZM505.379 239L508.545 238.12L507.876 235.714H505.379V239ZM504.479 239V235.714H501.981L501.312 238.12L504.479 239ZM489.479 293V296.286H491.976L492.645 293.88L489.479 293ZM469.979 293L473.141 292.105L450.641 212.605L447.479 213.5L444.316 214.395L466.816 293.895L469.979 293ZM447.479 213.5V216.786H466.379V213.5V210.214H447.479V213.5ZM466.379 213.5L463.191 214.301L477.291 270.401L480.479 269.6L483.666 268.799L469.566 212.699L466.379 213.5ZM480.479 269.6V272.886H481.079V269.6V266.314H480.479V269.6ZM481.079 269.6L484.262 270.417L498.662 214.317L495.479 213.5L492.295 212.683L477.895 268.783L481.079 269.6ZM495.479 213.5V216.786H514.379V213.5V210.214H495.479V213.5ZM514.379 213.5L511.196 214.321L525.596 270.121L528.779 269.3L531.961 268.479L517.561 212.679L514.379 213.5ZM528.779 269.3V272.586H529.379V269.3V266.014H528.779V269.3ZM529.379 269.3L532.569 270.089L546.369 214.289L543.179 213.5L539.988 212.711L526.188 268.511L529.379 269.3ZM543.179 213.5V216.786H562.379V213.5V210.214H543.179V213.5ZM562.379 213.5L559.216 212.605L536.716 292.105L539.879 293L543.041 293.895L565.541 214.395L562.379 213.5ZM539.879 293V289.714H520.379V293V296.286H539.879V293ZM520.379 293L523.545 292.12L508.545 238.12L505.379 239L502.212 239.88L517.212 293.88L520.379 293ZM505.379 239V235.714H504.479V239V242.286H505.379V239ZM504.479 239L501.312 238.12L486.312 292.12L489.479 293L492.645 293.88L507.645 239.88L504.479 239ZM489.479 293V289.714H469.979V293V296.286H489.479V293ZM574.328 293H571.042V296.286H574.328V293ZM574.328 213.5V210.214H571.042V213.5H574.328ZM592.928 213.5H596.215V210.214H592.928V213.5ZM592.928 293V296.286H596.215V293H592.928ZM583.628 181.7L583.71 178.415L583.627 178.413L583.544 178.415L583.628 181.7ZM574.328 293H577.615V213.5H574.328H571.042V293H574.328ZM574.328 213.5V216.786H592.928V213.5V210.214H574.328V213.5ZM592.928 213.5H589.642V293H592.928H596.215V213.5H592.928ZM592.928 293V289.714H574.328V293V296.286H592.928V293ZM572.828 191.9H576.115C576.115 188.414 579.348 185.097 583.712 184.985L583.628 181.7L583.544 178.415C576.208 178.603 569.542 184.286 569.542 191.9H572.828ZM583.628 181.7L583.546 184.985C588.027 185.097 591.142 188.386 591.142 191.9H594.428H597.715C597.715 184.314 591.229 178.603 583.71 178.415L583.628 181.7ZM594.428 191.9H591.142C591.142 195.604 588 198.814 583.628 198.814V202.1V205.386C591.256 205.386 597.715 199.596 597.715 191.9H594.428ZM583.628 202.1V198.814C579.376 198.814 576.115 195.575 576.115 191.9H572.828H569.542C569.542 199.625 576.18 205.386 583.628 205.386V202.1ZM629.549 293V296.286H632.836V293H629.549ZM610.949 293H607.663V296.286H610.949V293ZM610.949 213.5V210.214H607.663V213.5H610.949ZM628.649 213.5H631.936V210.214H628.649V213.5ZM628.649 227H625.363V230.286H628.649V227ZM629.849 227V230.286H632.074L632.901 228.221L629.849 227ZM653.549 212.3L653.579 209.014L653.544 209.013L653.508 209.014L653.549 212.3ZM680.549 242.3L677.263 242.274L677.263 242.287V242.3H680.549ZM680.549 293V296.286H683.836V293H680.549ZM661.949 293H658.663V296.286H661.949V293ZM661.949 245.3L658.663 245.254L658.663 245.277V245.3H661.949ZM629.549 246.5H626.263V293H629.549H632.836V246.5H629.549ZM629.549 293V289.714H610.949V293V296.286H629.549V293ZM610.949 293H614.236V213.5H610.949H607.663V293H610.949ZM610.949 213.5V216.786H628.649V213.5V210.214H610.949V213.5ZM628.649 213.5H625.363V227H628.649H631.936V213.5H628.649ZM628.649 227V230.286H629.849V227V223.714H628.649V227ZM629.849 227L632.901 228.221C635.942 220.618 642.733 215.722 653.59 215.586L653.549 212.3L653.508 209.014C640.365 209.178 630.957 215.382 626.798 225.779L629.849 227ZM653.549 212.3L653.519 215.586C660.958 215.655 666.821 218.124 670.826 222.446C674.849 226.788 677.333 233.367 677.263 242.274L680.549 242.3L683.836 242.326C683.915 232.183 681.075 223.837 675.647 217.979C670.202 212.101 662.491 209.095 653.579 209.014L653.549 212.3ZM680.549 242.3H677.263V293H680.549H683.836V242.3H680.549ZM680.549 293V289.714H661.949V293V296.286H680.549V293ZM661.949 293H665.236V245.3H661.949H658.663V293H661.949ZM661.949 245.3L665.235 245.346C665.318 239.365 663.741 234.189 660.341 230.479C656.91 226.737 652.015 224.914 646.349 224.914V228.2V231.486C650.584 231.486 653.563 232.813 655.495 234.921C657.458 237.061 658.73 240.435 658.663 245.254L661.949 245.3ZM646.349 228.2V224.914C640.715 224.914 635.609 226.837 631.92 230.689C628.237 234.534 626.263 239.986 626.263 246.5H629.549H632.836C632.836 241.314 634.387 237.616 636.666 235.236C638.939 232.863 642.234 231.486 646.349 231.486V228.2ZM697.347 300.2V296.914H693.748L694.074 300.498L697.347 300.2ZM715.947 300.2L719.158 299.502L718.596 296.914H715.947V300.2ZM751.947 278.6H755.233V275.314H751.947V278.6ZM751.047 278.6V275.314H748.992L748.092 277.161L751.047 278.6ZM728.247 212.3L728.282 209.014L728.251 209.013L728.22 209.014L728.247 212.3ZM751.047 226.4L748.123 227.901L749.04 229.686H751.047V226.4ZM751.947 226.4V229.686H755.233V226.4H751.947ZM751.947 213.5V210.214H748.66V213.5H751.947ZM770.547 213.5H773.833V210.214H770.547V213.5ZM770.547 294.2L773.833 294.224L773.833 294.212V294.2H770.547ZM714.447 252.8L717.733 252.834L717.733 252.8L717.733 252.766L714.447 252.8ZM733.347 277.1L733.388 273.814L733.348 273.813L733.307 273.814L733.347 277.1ZM751.947 252.8L748.661 252.767L748.66 252.8L748.661 252.832L751.947 252.8ZM733.347 227.6L733.388 224.314L733.348 224.313L733.308 224.314L733.347 227.6ZM733.047 324.5V321.214C723.003 321.214 715.124 318.95 709.691 315.211C704.335 311.526 701.203 306.32 700.62 299.902L697.347 300.2L694.074 300.498C694.841 308.93 699.059 315.874 705.965 320.626C712.795 325.325 722.091 327.786 733.047 327.786V324.5ZM697.347 300.2V303.486H715.947V300.2V296.914H697.347V300.2ZM715.947 300.2L712.735 300.898C713.695 305.311 716.295 308.624 720.047 310.748C723.692 312.811 728.289 313.686 733.347 313.686V310.4V307.114C728.955 307.114 725.602 306.339 723.284 305.027C721.074 303.776 719.699 301.989 719.158 299.502L715.947 300.2ZM733.347 310.4V313.686C739.43 313.686 744.962 312.417 749.014 309.072C753.184 305.629 755.233 300.456 755.233 293.9H751.947H748.66C748.66 299.044 747.109 302.121 744.83 304.003C742.432 305.983 738.664 307.114 733.347 307.114V310.4ZM751.947 293.9H755.233V278.6H751.947H748.66V293.9H751.947ZM751.947 278.6V275.314H751.047V278.6V281.886H751.947V278.6ZM751.047 278.6L748.092 277.161C745.666 282.141 740.224 288.514 728.247 288.514V291.8V295.086C743.269 295.086 750.728 286.759 754.001 280.039L751.047 278.6ZM728.247 291.8V288.514C719.765 288.514 712.444 285.491 707.214 279.682C701.961 273.848 698.533 264.878 698.533 252.5H695.247H691.96C691.96 266.072 695.732 276.752 702.329 284.08C708.95 291.434 718.129 295.086 728.247 295.086V291.8ZM695.247 252.5H698.533C698.533 240.051 701.997 230.873 707.298 224.837C712.575 218.828 719.908 215.654 728.274 215.586L728.247 212.3L728.22 209.014C718.136 209.096 708.969 212.972 702.359 220.5C695.771 228.002 691.96 238.849 691.96 252.5H695.247ZM728.247 212.3L728.212 215.586C734.473 215.654 738.76 217.551 741.786 219.915C744.865 222.32 746.812 225.347 748.123 227.901L751.047 226.4L753.97 224.899C752.432 221.903 749.954 217.955 745.833 214.735C741.659 211.474 735.971 209.096 728.282 209.014L728.247 212.3ZM751.047 226.4V229.686H751.947V226.4V223.114H751.047V226.4ZM751.947 226.4H755.233V213.5H751.947H748.66V226.4H751.947ZM751.947 213.5V216.786H770.547V213.5V210.214H751.947V213.5ZM770.547 213.5H767.26V294.2H770.547H773.833V213.5H770.547ZM770.547 294.2L767.261 294.176C767.193 303.431 763.641 310.013 757.861 314.377C751.958 318.833 743.402 321.214 733.047 321.214V324.5V327.786C744.292 327.786 754.411 325.217 761.821 319.623C769.352 313.937 773.751 305.369 773.833 294.224L770.547 294.2ZM714.447 252.8L711.161 252.766C711.081 260.556 712.778 267.463 716.541 272.489C720.402 277.643 726.188 280.473 733.386 280.386L733.347 277.1L733.307 273.814C728.056 273.877 724.317 271.907 721.802 268.549C719.191 265.062 717.663 259.744 717.733 252.834L714.447 252.8ZM733.347 277.1L733.305 280.386C740.182 280.473 745.891 277.812 749.76 272.736C753.539 267.78 755.312 260.861 755.233 252.768L751.947 252.8L748.661 252.832C748.731 260.039 747.13 265.345 744.533 268.751C742.028 272.038 738.362 273.877 733.388 273.814L733.347 277.1ZM751.947 252.8L755.233 252.833C755.313 244.885 753.575 237.862 749.871 232.712C746.085 227.447 740.416 224.402 733.388 224.314L733.347 227.6L733.306 230.886C738.278 230.948 741.984 233.003 744.535 236.55C747.169 240.213 748.731 245.715 748.661 252.767L751.947 252.8ZM733.347 227.6L733.308 224.314C725.959 224.401 720.211 227.615 716.432 232.959C712.742 238.178 711.081 245.191 711.161 252.834L714.447 252.8L717.733 252.766C717.663 246.009 719.152 240.497 721.799 236.754C724.357 233.135 728.135 230.949 733.386 230.886L733.347 227.6Z" fill="#586140" fill-opacity="0.4" mask="url(#path-3-outside-2_80_14)"/>
<mask id="path-5-outside-3_80_14" maskUnits="userSpaceOnUse" x="-0.367188" y="326" width="531" height="120" fill="black">
<rect fill="white" x="-0.367188" y="326" width="531" height="120"/>
<path d="M24.7328 441H4.63281L41.8328 334.8H65.5328L102.733 441H82.3328L73.6328 414.9H33.5828L24.7328 441ZM38.8328 399.3H68.3828L54.1328 356.7H53.2328L38.8328 399.3ZM114.783 441V361.5H132.783V374.7H133.683C136.533 365.55 144.183 360.3 153.183 360.3C155.433 360.3 158.433 360.45 160.083 360.9V378C158.433 377.4 154.533 376.95 151.383 376.8C141.033 376.95 133.383 384 133.383 394.2V441H114.783ZM203.489 442.5C179.639 442.65 165.239 425.55 165.389 401.7C165.239 377.25 180.089 360.45 203.189 360.3C222.689 360.45 236.189 371.7 237.389 388.8H219.689C218.189 381.3 212.639 375.45 203.489 375.3C191.939 375.45 184.139 385.2 184.289 401.1C184.139 417.6 191.789 427.35 203.489 427.2C211.739 427.35 217.889 422.55 219.689 414H237.389C236.039 430.65 223.289 442.65 203.489 442.5ZM270.053 394.5V441H251.453V334.8H269.753V375H270.653C274.403 366 282.053 360.45 294.353 360.3C310.853 360.45 321.653 371.1 321.653 390.3V441H303.053V393.3C303.053 382.5 297.203 376.2 287.453 376.2C277.253 376.2 270.053 382.8 270.053 394.5ZM339.637 441V361.5H358.237V441H339.637ZM338.137 339.9C338.137 334.35 343.087 329.85 348.937 329.7C354.937 329.85 359.737 334.35 359.737 339.9C359.737 345.6 354.937 350.1 348.937 350.1C343.087 350.1 338.137 345.6 338.137 339.9ZM447.358 361.5L418.858 441H398.158L369.958 361.5H389.758L408.058 420.6H408.958L427.558 361.5H447.358ZM491.485 442.5C467.635 442.65 452.935 426.6 453.085 401.7C452.935 377.1 467.935 360.45 490.585 360.3C510.085 360.45 526.885 372.6 526.885 400.5V406.5H471.385C471.835 420.15 479.635 428.1 491.785 428.1C500.035 428.1 505.435 424.5 507.985 419.7H526.285C522.835 433.5 510.085 442.65 491.485 442.5ZM471.385 393.6H508.885C508.885 382.95 501.685 375 490.885 375C479.635 375 472.135 383.4 471.385 393.6Z"/>
</mask>
<path d="M24.7328 441H4.63281L41.8328 334.8H65.5328L102.733 441H82.3328L73.6328 414.9H33.5828L24.7328 441ZM38.8328 399.3H68.3828L54.1328 356.7H53.2328L38.8328 399.3ZM114.783 441V361.5H132.783V374.7H133.683C136.533 365.55 144.183 360.3 153.183 360.3C155.433 360.3 158.433 360.45 160.083 360.9V378C158.433 377.4 154.533 376.95 151.383 376.8C141.033 376.95 133.383 384 133.383 394.2V441H114.783ZM203.489 442.5C179.639 442.65 165.239 425.55 165.389 401.7C165.239 377.25 180.089 360.45 203.189 360.3C222.689 360.45 236.189 371.7 237.389 388.8H219.689C218.189 381.3 212.639 375.45 203.489 375.3C191.939 375.45 184.139 385.2 184.289 401.1C184.139 417.6 191.789 427.35 203.489 427.2C211.739 427.35 217.889 422.55 219.689 414H237.389C236.039 430.65 223.289 442.65 203.489 442.5ZM270.053 394.5V441H251.453V334.8H269.753V375H270.653C274.403 366 282.053 360.45 294.353 360.3C310.853 360.45 321.653 371.1 321.653 390.3V441H303.053V393.3C303.053 382.5 297.203 376.2 287.453 376.2C277.253 376.2 270.053 382.8 270.053 394.5ZM339.637 441V361.5H358.237V441H339.637ZM338.137 339.9C338.137 334.35 343.087 329.85 348.937 329.7C354.937 329.85 359.737 334.35 359.737 339.9C359.737 345.6 354.937 350.1 348.937 350.1C343.087 350.1 338.137 345.6 338.137 339.9ZM447.358 361.5L418.858 441H398.158L369.958 361.5H389.758L408.058 420.6H408.958L427.558 361.5H447.358ZM491.485 442.5C467.635 442.65 452.935 426.6 453.085 401.7C452.935 377.1 467.935 360.45 490.585 360.3C510.085 360.45 526.885 372.6 526.885 400.5V406.5H471.385C471.835 420.15 479.635 428.1 491.785 428.1C500.035 428.1 505.435 424.5 507.985 419.7H526.285C522.835 433.5 510.085 442.65 491.485 442.5ZM471.385 393.6H508.885C508.885 382.95 501.685 375 490.885 375C479.635 375 472.135 383.4 471.385 393.6Z" fill="white"/>
<path d="M24.7328 441V444.286H27.0886L27.8452 442.055L24.7328 441ZM4.63281 441L1.53119 439.914L-0.000540972 444.286H4.63281V441ZM41.8328 334.8V331.514H39.5018L38.7312 333.714L41.8328 334.8ZM65.5328 334.8L68.6344 333.714L67.8638 331.514H65.5328V334.8ZM102.733 441V444.286H107.366L105.834 439.914L102.733 441ZM82.3328 441L79.2151 442.039L79.9641 444.286H82.3328V441ZM73.6328 414.9L76.7506 413.861L76.0015 411.614H73.6328V414.9ZM33.5828 414.9V411.614H31.227L30.4705 413.845L33.5828 414.9ZM38.8328 399.3L35.7195 398.248L34.2528 402.586H38.8328V399.3ZM68.3828 399.3V402.586H72.9475L71.4995 398.257L68.3828 399.3ZM54.1328 356.7L57.2495 355.657L56.4989 353.414H54.1328V356.7ZM53.2328 356.7V353.414H50.8746L50.1195 355.648L53.2328 356.7ZM24.7328 441V437.714H4.63281V441V444.286H24.7328V441ZM4.63281 441L7.73444 442.086L44.9344 335.886L41.8328 334.8L38.7312 333.714L1.53119 439.914L4.63281 441ZM41.8328 334.8V338.086H65.5328V334.8V331.514H41.8328V334.8ZM65.5328 334.8L62.4312 335.886L99.6312 442.086L102.733 441L105.834 439.914L68.6344 333.714L65.5328 334.8ZM102.733 441V437.714H82.3328V441V444.286H102.733V441ZM82.3328 441L85.4506 439.961L76.7506 413.861L73.6328 414.9L70.5151 415.939L79.2151 442.039L82.3328 441ZM73.6328 414.9V411.614H33.5828V414.9V418.186H73.6328V414.9ZM33.5828 414.9L30.4705 413.845L21.6205 439.945L24.7328 441L27.8452 442.055L36.6952 415.955L33.5828 414.9ZM38.8328 399.3V402.586H68.3828V399.3V396.014H38.8328V399.3ZM68.3828 399.3L71.4995 398.257L57.2495 355.657L54.1328 356.7L51.0162 357.743L65.2662 400.343L68.3828 399.3ZM54.1328 356.7V353.414H53.2328V356.7V359.986H54.1328V356.7ZM53.2328 356.7L50.1195 355.648L35.7195 398.248L38.8328 399.3L41.9462 400.352L56.3462 357.752L53.2328 356.7ZM114.783 441H111.497V444.286H114.783V441ZM114.783 361.5V358.214H111.497V361.5H114.783ZM132.783 361.5H136.07V358.214H132.783V361.5ZM132.783 374.7H129.497V377.986H132.783V374.7ZM133.683 374.7V377.986H136.102L136.821 375.677L133.683 374.7ZM160.083 360.9H163.37V358.39L160.948 357.729L160.083 360.9ZM160.083 378L158.96 381.089L163.37 382.692V378H160.083ZM151.383 376.8L151.54 373.517L151.438 373.512L151.336 373.514L151.383 376.8ZM133.383 441V444.286H136.67V441H133.383ZM114.783 441H118.07V361.5H114.783H111.497V441H114.783ZM114.783 361.5V364.786H132.783V361.5V358.214H114.783V361.5ZM132.783 361.5H129.497V374.7H132.783H136.07V361.5H132.783ZM132.783 374.7V377.986H133.683V374.7V371.414H132.783V374.7ZM133.683 374.7L136.821 375.677C139.23 367.942 145.578 363.586 153.183 363.586V360.3V357.014C142.788 357.014 133.836 363.158 130.545 373.723L133.683 374.7ZM153.183 360.3V363.586C155.45 363.586 158.043 363.75 159.219 364.071L160.083 360.9L160.948 357.729C158.824 357.15 155.417 357.014 153.183 357.014V360.3ZM160.083 360.9H156.797V378H160.083H163.37V360.9H160.083ZM160.083 378L161.206 374.911C160.013 374.478 158.312 374.181 156.722 373.973C155.049 373.754 153.196 373.596 151.54 373.517L151.383 376.8L151.227 380.083C152.721 380.154 154.392 380.296 155.869 380.49C157.43 380.694 158.503 380.922 158.96 381.089L160.083 378ZM151.383 376.8L151.336 373.514C139.384 373.687 130.097 382.015 130.097 394.2H133.383H136.67C136.67 385.985 142.682 380.213 151.431 380.086L151.383 376.8ZM133.383 394.2H130.097V441H133.383H136.67V394.2H133.383ZM133.383 441V437.714H114.783V441V444.286H133.383V441ZM203.489 442.5L203.514 439.214L203.492 439.214L203.469 439.214L203.489 442.5ZM165.389 401.7L168.676 401.721L168.676 401.7L168.676 401.68L165.389 401.7ZM203.189 360.3L203.215 357.014L203.191 357.014L203.168 357.014L203.189 360.3ZM237.389 388.8V392.086H240.915L240.668 388.57L237.389 388.8ZM219.689 388.8L216.467 389.445L216.995 392.086H219.689V388.8ZM203.489 375.3L203.543 372.014L203.495 372.013L203.447 372.014L203.489 375.3ZM184.289 401.1L187.576 401.13L187.576 401.099L187.576 401.069L184.289 401.1ZM203.489 427.2L203.549 423.914L203.498 423.913L203.447 423.914L203.489 427.2ZM219.689 414V410.714H217.023L216.474 413.323L219.689 414ZM237.389 414L240.665 414.266L240.953 410.714H237.389V414ZM203.489 442.5L203.469 439.214C192.38 439.283 183.746 435.368 177.874 428.892C171.968 422.379 168.605 412.991 168.676 401.721L165.389 401.7L162.103 401.679C162.024 414.259 165.786 425.346 173.005 433.308C180.258 441.307 190.749 445.867 203.51 445.786L203.489 442.5ZM165.389 401.7L168.676 401.68C168.605 390.119 172.075 380.651 178.008 374.092C183.915 367.562 192.495 363.656 203.211 363.586L203.189 360.3L203.168 357.014C190.784 357.094 180.389 361.663 173.134 369.683C165.904 377.674 162.024 388.831 162.103 401.72L165.389 401.7ZM203.189 360.3L203.164 363.586C212.296 363.657 219.77 366.32 225.048 370.718C230.296 375.091 233.571 381.337 234.111 389.03L237.389 388.8L240.668 388.57C240.008 379.163 235.933 371.234 229.256 365.669C222.609 360.13 213.583 357.093 203.215 357.014L203.189 360.3ZM237.389 388.8V385.514H219.689V388.8V392.086H237.389V388.8ZM219.689 388.8L222.912 388.155C222.042 383.808 219.968 379.797 216.643 376.838C213.292 373.858 208.844 372.101 203.543 372.014L203.489 375.3L203.436 378.586C207.285 378.649 210.187 379.892 212.274 381.749C214.386 383.628 215.836 386.292 216.467 389.445L219.689 388.8ZM203.489 375.3L203.447 372.014C196.665 372.102 190.875 375.052 186.885 380.306C182.952 385.484 180.923 392.673 181.003 401.131L184.289 401.1L187.576 401.069C187.505 393.627 189.302 387.991 192.119 384.281C194.879 380.648 198.764 378.648 203.532 378.586L203.489 375.3ZM184.289 401.1L181.003 401.07C180.924 409.785 182.896 417.13 186.815 422.364C190.812 427.701 196.651 430.574 203.532 430.486L203.489 427.2L203.447 423.914C198.628 423.976 194.791 422.049 192.076 418.424C189.283 414.695 187.505 408.915 187.576 401.13L184.289 401.1ZM203.489 427.2L203.43 430.486C208.223 430.573 212.6 429.216 216.07 426.422C219.537 423.629 221.873 419.582 222.905 414.677L219.689 414L216.474 413.323C215.706 416.968 214.067 419.596 211.947 421.303C209.828 423.009 207.006 423.977 203.549 423.914L203.489 427.2ZM219.689 414V417.286H237.389V414V410.714H219.689V414ZM237.389 414L234.114 413.734C233.503 421.267 230.339 427.61 225.204 432.068C220.063 436.532 212.736 439.284 203.514 439.214L203.489 442.5L203.465 445.786C214.043 445.866 222.991 442.693 229.513 437.032C236.04 431.365 239.926 423.383 240.665 414.266L237.389 414ZM270.053 441V444.286H273.34V441H270.053ZM251.453 441H248.167V444.286H251.453V441ZM251.453 334.8V331.514H248.167V334.8H251.453ZM269.753 334.8H273.04V331.514H269.753V334.8ZM269.753 375H266.467V378.286H269.753V375ZM270.653 375V378.286H272.844L273.687 376.264L270.653 375ZM294.353 360.3L294.383 357.014L294.348 357.013L294.313 357.014L294.353 360.3ZM321.653 441V444.286H324.94V441H321.653ZM303.053 441H299.767V444.286H303.053V441ZM270.053 394.5H266.767V441H270.053H273.34V394.5H270.053ZM270.053 441V437.714H251.453V441V444.286H270.053V441ZM251.453 441H254.74V334.8H251.453H248.167V441H251.453ZM251.453 334.8V338.086H269.753V334.8V331.514H251.453V334.8ZM269.753 334.8H266.467V375H269.753H273.04V334.8H269.753ZM269.753 375V378.286H270.653V375V371.714H269.753V375ZM270.653 375L273.687 376.264C275.341 372.294 277.792 369.216 281.08 367.092C284.38 364.96 288.733 363.655 294.393 363.586L294.353 360.3L294.313 357.014C287.673 357.095 282.051 358.64 277.514 361.571C272.965 364.509 269.715 368.706 267.62 373.736L270.653 375ZM294.353 360.3L294.323 363.586C301.856 363.655 307.758 366.099 311.793 370.404C315.845 374.727 318.367 381.306 318.367 390.3H321.653H324.94C324.94 380.094 322.061 371.748 316.588 365.909C311.098 360.051 303.35 357.095 294.383 357.014L294.353 360.3ZM321.653 390.3H318.367V441H321.653H324.94V390.3H321.653ZM321.653 441V437.714H303.053V441V444.286H321.653V441ZM303.053 441H306.34V393.3H303.053H299.767V441H303.053ZM303.053 393.3H306.34C306.34 387.329 304.718 382.173 301.332 378.479C297.911 374.748 293.061 372.914 287.453 372.914V376.2V379.486C291.595 379.486 294.545 380.802 296.487 382.921C298.463 385.077 299.767 388.471 299.767 393.3H303.053ZM287.453 376.2V372.914C281.635 372.914 276.387 374.81 272.59 378.653C268.791 382.498 266.767 387.966 266.767 394.5H270.053H273.34C273.34 389.334 274.915 385.652 277.266 383.272C279.619 380.89 283.071 379.486 287.453 379.486V376.2ZM339.637 441H336.35V444.286H339.637V441ZM339.637 361.5V358.214H336.35V361.5H339.637ZM358.237 361.5H361.523V358.214H358.237V361.5ZM358.237 441V444.286H361.523V441H358.237ZM348.937 329.7L349.019 326.415L348.936 326.413L348.852 326.415L348.937 329.7ZM339.637 441H342.923V361.5H339.637H336.35V441H339.637ZM339.637 361.5V364.786H358.237V361.5V358.214H339.637V361.5ZM358.237 361.5H354.95V441H358.237H361.523V361.5H358.237ZM358.237 441V437.714H339.637V441V444.286H358.237V441ZM338.137 339.9H341.423C341.423 336.414 344.656 333.097 349.021 332.985L348.937 329.7L348.852 326.415C341.517 326.603 334.85 332.286 334.85 339.9H338.137ZM348.937 329.7L348.855 332.985C353.336 333.097 356.45 336.386 356.45 339.9H359.737H363.023C363.023 332.314 356.538 326.603 349.019 326.415L348.937 329.7ZM359.737 339.9H356.45C356.45 343.604 353.308 346.814 348.937 346.814V350.1V353.386C356.565 353.386 363.023 347.596 363.023 339.9H359.737ZM348.937 350.1V346.814C344.685 346.814 341.423 343.575 341.423 339.9H338.137H334.85C334.85 347.625 341.489 353.386 348.937 353.386V350.1ZM447.358 361.5L450.451 362.609L452.027 358.214H447.358V361.5ZM418.858 441V444.286H421.171L421.951 442.109L418.858 441ZM398.158 441L395.061 442.099L395.837 444.286H398.158V441ZM369.958 361.5V358.214H365.305L366.861 362.599L369.958 361.5ZM389.758 361.5L392.897 360.528L392.181 358.214H389.758V361.5ZM408.058 420.6L404.918 421.572L405.635 423.886H408.058V420.6ZM408.958 420.6V423.886H411.369L412.093 421.587L408.958 420.6ZM427.558 361.5V358.214H425.147L424.423 360.513L427.558 361.5ZM447.358 361.5L444.264 360.391L415.764 439.891L418.858 441L421.951 442.109L450.451 362.609L447.358 361.5ZM418.858 441V437.714H398.158V441V444.286H418.858V441ZM398.158 441L401.255 439.901L373.055 360.401L369.958 361.5L366.861 362.599L395.061 442.099L398.158 441ZM369.958 361.5V364.786H389.758V361.5V358.214H369.958V361.5ZM389.758 361.5L386.618 362.472L404.918 421.572L408.058 420.6L411.197 419.628L392.897 360.528L389.758 361.5ZM408.058 420.6V423.886H408.958V420.6V417.314H408.058V420.6ZM408.958 420.6L412.093 421.587L430.693 362.487L427.558 361.5L424.423 360.513L405.823 419.613L408.958 420.6ZM427.558 361.5V364.786H447.358V361.5V358.214H427.558V361.5ZM491.485 442.5L491.511 439.214L491.488 439.214L491.464 439.214L491.485 442.5ZM453.085 401.7L456.371 401.72L456.371 401.7L456.371 401.68L453.085 401.7ZM490.585 360.3L490.61 357.014L490.587 357.014L490.563 357.014L490.585 360.3ZM526.885 406.5V409.786H530.171V406.5H526.885ZM471.385 406.5V403.214H467.988L468.1 406.608L471.385 406.5ZM507.985 419.7V416.414H506.009L505.082 418.158L507.985 419.7ZM526.285 419.7L529.473 420.497L530.494 416.414H526.285V419.7ZM471.385 393.6L468.107 393.359L467.848 396.886H471.385V393.6ZM508.885 393.6V396.886H512.171V393.6H508.885ZM491.485 442.5L491.464 439.214C480.31 439.284 471.604 435.586 465.686 429.25C459.744 422.888 456.3 413.527 456.371 401.72L453.085 401.7L449.798 401.68C449.72 414.773 453.551 425.887 460.883 433.737C468.24 441.614 478.809 445.866 491.505 445.786L491.485 442.5ZM453.085 401.7L456.371 401.68C456.3 390.049 459.805 380.578 465.722 374.036C471.615 367.519 480.124 363.656 490.607 363.586L490.585 360.3L490.563 357.014C478.396 357.094 468.079 361.631 460.847 369.627C453.639 377.597 449.719 388.751 449.798 401.72L453.085 401.7ZM490.585 360.3L490.559 363.586C499.647 363.656 507.836 366.513 513.74 372.334C519.62 378.131 523.598 387.226 523.598 400.5H526.885H530.171C530.171 385.874 525.75 374.944 518.354 367.653C510.984 360.387 501.022 357.094 490.61 357.014L490.585 360.3ZM526.885 400.5H523.598V406.5H526.885H530.171V400.5H526.885ZM526.885 406.5V403.214H471.385V406.5V409.786H526.885V406.5ZM471.385 406.5L468.1 406.608C468.345 414.024 470.604 420.27 474.82 424.688C479.063 429.134 484.965 431.386 491.785 431.386V428.1V424.814C486.455 424.814 482.381 423.091 479.575 420.15C476.741 417.18 474.875 412.626 474.669 406.392L471.385 406.5ZM491.785 428.1V431.386C501.071 431.386 507.687 427.265 510.887 421.242L507.985 419.7L505.082 418.158C503.182 421.735 498.999 424.814 491.785 424.814V428.1ZM507.985 419.7V422.986H526.285V419.7V416.414H507.985V419.7ZM526.285 419.7L523.096 418.903C520.102 430.882 508.984 439.355 491.511 439.214L491.485 442.5L491.458 445.786C511.185 445.945 525.568 436.118 529.473 420.497L526.285 419.7ZM471.385 393.6V396.886H508.885V393.6V390.314H471.385V393.6ZM508.885 393.6H512.171C512.171 387.529 510.111 382.039 506.318 378.044C502.51 374.031 497.129 371.714 490.885 371.714V375V378.286C495.441 378.286 499.06 379.944 501.551 382.569C504.059 385.211 505.598 389.021 505.598 393.6H508.885ZM490.885 375V371.714C477.698 371.714 468.967 381.665 468.107 393.359L471.385 393.6L474.662 393.841C475.302 385.135 481.571 378.286 490.885 378.286V375Z" fill="#586140" fill-opacity="0.4" mask="url(#path-5-outside-3_80_14)"/>
</svg>
